Top.Chef.S06E03.DSR.XviD-SHOTV.avi (351.3 MB)

EP 6.3 Thunderbirds: The remaining contestants try to serve the 300 pilots and crew from the USAF Air Demonstration Squadron based at Nellis AFB with the same Pride, Precision and Professionalism on deck that the Thunderbirds show in the air. Guest judge: Mark Peel.


Note: Usually I don't upload TV shows but for some reason this show is always late so I decided to upload it myself. Credit goes to ShoTV.

Info:

General
Format : AVI
Format/Info : Audio Video Interleave
File size : 351 MiB
Duration : 54mn 51s
Overall bit rate : 895 Kbps
Movie name : top.chef.s06e03.dsr.xvid-shotv
Writing application : VirtualDubMod 1.5.10.2 (build 2542/release)
Writing library : VirtualDubMod build 2542/release

Video
Format : MPEG-4 Visual
Format profile : Streaming Video@L1
Format settings, BVOP : Yes
Format settings, QPel : No
Format settings, GMC : No warppoints
Format settings, Matrix : Custom
Codec ID : XVID
Codec ID/Hint : XviD
Duration : 54mn 51s
Bit rate : 753 Kbps
Width : 512 pixels
Height : 384 pixels
Display aspect ratio : 4/3
Frame rate : 23.976 fps
Resolution : 8 bits
Colorimetry : 4:2:0
Scan type : Progressive
Bits/(Pixel*Frame) : 0.160
Stream size : 295 MiB (84%)
Writing library : XviD 50

Audio
Format : MPEG Audio
Format version : Version 1
Format profile : Layer 3
Codec ID : 55
Codec ID/Hint : MP3
Duration : 54mn 51s
Bit rate mode : Variable
Bit rate : 130 Kbps
Minimum bit rate : 138 Kbps
Channel(s) : 2 channels
Sampling rate : 48.0 KHz
Resolution : 16 bits
Stream size : 50.8 MiB (14%)
Alignment : Aligned on interleaves
Interleave, duration : 24 ms (0.58 video frame)
Interleave, preload duration : 557 ms
Writing library : LAME3.98r
Encoding settings : ABR